<?xml version="1.0" encoding="UTF-8" standalone="no"?>
<!-- Created with Inkscape (http://www.inkscape.org/) -->

<svg
   width="40mm"
   height="20mm"
   viewBox="0 0 40 20"
   version="1.1"
   id="svg4502"
   inkscape:version="1.1.1 (3bf5ae0d25, 2021-09-20)"
   sodipodi:docname="car.svg"
   xmlns:inkscape="http://www.inkscape.org/namespaces/inkscape"
   xmlns:sodipodi="http://sodipodi.sourceforge.net/DTD/sodipodi-0.dtd"
   xmlns="http://www.w3.org/2000/svg"
   xmlns:svg="http://www.w3.org/2000/svg">
  <sodipodi:namedview
     id="namedview4504"
     pagecolor="#ffffff"
     bordercolor="#666666"
     borderopacity="1.0"
     inkscape:pageshadow="2"
     inkscape:pageopacity="0.0"
     inkscape:pagecheckerboard="0"
     inkscape:document-units="mm"
     showgrid="false"
     width="40mm"
     inkscape:zoom="3.7273288"
     inkscape:cx="88.669398"
     inkscape:cy="81.29146"
     inkscape:window-width="1366"
     inkscape:window-height="694"
     inkscape:window-x="0"
     inkscape:window-y="0"
     inkscape:window-maximized="1"
     inkscape:current-layer="layer1" />
  <defs
     id="defs4499">
    <inkscape:path-effect
       effect="bspline"
       id="path-effect10785"
       is_visible="true"
       lpeversion="1"
       weight="33.333333"
       steps="2"
       helper_size="0"
       apply_no_weight="true"
       apply_with_weight="true"
       only_selected="false" />
    <inkscape:path-effect
       effect="bspline"
       id="path-effect10071"
       is_visible="true"
       lpeversion="1"
       weight="33.333333"
       steps="2"
       helper_size="0"
       apply_no_weight="true"
       apply_with_weight="true"
       only_selected="false" />
    <inkscape:path-effect
       effect="bspline"
       id="path-effect10067"
       is_visible="true"
       lpeversion="1"
       weight="33.333333"
       steps="2"
       helper_size="0"
       apply_no_weight="true"
       apply_with_weight="true"
       only_selected="false" />
    <inkscape:path-effect
       effect="bspline"
       id="path-effect7223"
       is_visible="true"
       lpeversion="1"
       weight="33.333333"
       steps="2"
       helper_size="0"
       apply_no_weight="true"
       apply_with_weight="true"
       only_selected="false" />
    <inkscape:path-effect
       effect="powerstroke"
       id="path-effect4718"
       is_visible="true"
       lpeversion="1"
       offset_points="0,4.99214"
       not_jump="false"
       sort_points="true"
       interpolator_type="CubicBezierJohan"
       interpolator_beta="0.2"
       start_linecap_type="zerowidth"
       linejoin_type="extrp_arc"
       miter_limit="4"
       scale_width="1"
       end_linecap_type="zerowidth" />
    <inkscape:path-effect
       effect="bspline"
       id="path-effect4716"
       is_visible="true"
       lpeversion="1"
       weight="33.333333"
       steps="2"
       helper_size="0"
       apply_no_weight="true"
       apply_with_weight="true"
       only_selected="false" />
    <inkscape:path-effect
       effect="powerstroke"
       id="path-effect4679"
       is_visible="true"
       lpeversion="1"
       offset_points="0,4.99214"
       not_jump="false"
       sort_points="true"
       interpolator_type="CubicBezierJohan"
       interpolator_beta="0.2"
       start_linecap_type="zerowidth"
       linejoin_type="extrp_arc"
       miter_limit="4"
       scale_width="1"
       end_linecap_type="zerowidth" />
  </defs>
  <g
     inkscape:label="Layer 1"
     inkscape:groupmode="layer"
     id="layer1">
    <path
       style="opacity:1;fill:none;fill-opacity:1;fill-rule:nonzero;stroke:none;stroke-width:0.264583px;stroke-linecap:butt;stroke-linejoin:miter;stroke-opacity:1"
       d="m 5.4469451,10.831046 c 0.075288,-0.126401 0.1032641,-0.171625 0.1355296,-0.218478 0.025869,-0.03756 0.061052,-0.08499 0.1148541,-0.144853 C 5.7835726,10.371754 6.0224312,10.12541 6.5503876,9.8006585 6.8181605,9.6359484 7.1901603,9.4324893 7.6727061,9.1976749 8.1312375,8.9745463 8.6524178,8.7411209 9.2196356,8.5043012 10.304313,8.0514364 11.473588,7.6213134 12.501537,7.2791356 c 0.965405,-0.3213583 1.678502,-0.5222542 2.233914,-0.6452242 0.511848,-0.1133246 0.874892,-0.1572175 1.17981,-0.1719515 0.294526,-0.014232 0.533154,-0.00148 0.777895,0.036913 0.246338,0.038639 0.578779,0.1157246 1.068833,0.2848185 0.488573,0.1685826 1.090356,0.41346 1.764001,0.7332357 0.652908,0.3099323 1.343519,0.6761483 2.022671,1.0818208 0.704051,0.4205452 1.357865,0.8571307 2.194814,1.399932 0.738085,0.4786831 1.667944,1.0724831 2.611299,1.5472091 0.996578,0.501509 1.951273,0.846042 2.887134,1.086426 0.906426,0.232824 1.734449,0.351799 2.433854,0.433897 0.595245,0.06987 1.177651,0.119529 1.772895,0.1894 0.46316,0.05473 0.789224,0.123155 0.81646,0.130883 0.02736,0.0078 -0.172339,-0.04621 -0.44356,-0.250471 -0.139239,-0.104864 -0.276626,-0.233652 -0.400853,-0.383703 -0.1234,-0.149053 -0.213094,-0.294033 -0.275303,-0.418033 -0.06024,-0.120072 -0.06433,-0.151871 -0.05121,-0.110019 0.01571,0.05014 0.04256,0.147118 0.08191,0.321225 0.07495,0.331677 0.167947,0.863648 0.328076,1.545495 0.153682,0.6544 0.338031,1.266747 0.445505,1.633129 0.06088,0.207539 0.09573,0.329967 0.11872,0.41856 0.02606,0.100433 0.0073,0.04679 -0.01234,-0.09253 -0.01081,-0.07663 -0.03045,-0.237462 -0.03294,-0.454057 -0.0025,-0.217462 0.01139,-0.545278 0.09518,-0.939301 0.0865,-0.406756 0.246354,-0.877562 0.527664,-1.357324 0.284826,-0.485758 0.64168,-0.890845 1.028979,-1.212196 0.376476,-0.312368 0.739682,-0.511232 1.021099,-0.636502 0.277793,-0.123656 0.507852,-0.189809 0.649355,-0.224599 0.301082,-0.07402 0.359735,-0.06208 0.295128,-0.05769 -0.07751,0.0053 -0.234164,0.01163 -0.531102,0.01263 -0.293119,9.92e-4 -0.667291,-0.0032 -1.166304,-0.01188 -1.999869,-0.03476 -2.351578,-0.04721 -4.351441,-0.08197 -1.967493,-0.03138 -4.483781,-0.0602 -7.142526,-0.08578 -2.696203,-0.02594 -5.561106,-0.04876 -8.195775,-0.06773 -2.705328,-0.01948 -5.096796,-0.0347 -7.1602888,-0.0787 -1.0372328,-0.02212 -1.959553,-0.05095 -2.7634038,-0.08945 -0.8181386,-0.03919 -1.4717164,-0.0865 -1.9731961,-0.14048 -0.50632,-0.0545 -0.800819,-0.110011 -0.952156,-0.146113 -0.1553196,-0.03705 -0.075031,-0.03399 0.1253756,0.0692 0.236009,0.121523 0.5497099,0.335985 0.8467023,0.668251 0.2870208,0.321111 0.4276384,0.607381 0.4648059,0.687487 0.061826,0.133251 0.047543,0.154244 0.028289,0.02842 -0.017666,-0.115442 -0.024176,-0.257196 -0.016679,-0.387117 0.00767,-0.132916 0.030867,-0.268632 0.055995,-0.370699 0.011505,-0.04673 0.021451,-0.07575 0.017571,-0.06452 -0.00398,0.01152 -0.017145,0.06005 -0.094596,0.216394 -0.071029,0.143377 -0.2261806,0.429438 -0.5014692,0.760103 -0.2897525,0.348038 -0.7736616,0.81802 -1.5006027,1.179236 -0.3748403,0.186257 -0.7809382,0.326461 -1.2087255,0.410642 -0.4346877,0.08554 -0.8417889,0.103483 -1.20327805,0.08301 -0.36249535,-0.02053 -0.65819057,-0.07837 -0.86334071,-0.128376 -0.20944183,-0.05105 -0.33076816,-0.09363 -0.32191409,-0.09077 0.009026,0.0029 0.22673719,0.100891 0.78961687,0.188646 0.28824785,0.04494 0.65802578,0.07708 1.08595988,0.05081 0.4412217,-0.02709 0.883674,-0.1126 1.3146202,-0.259372 0.4292075,-0.14618 0.7911416,-0.33402 1.0853097,-0.521502 0.2924791,-0.186408 0.5224788,-0.375312 0.6914782,-0.529247 0.324147,-0.295253 0.5417699,-0.571121 0.640791,-0.701078 0.1148186,-0.150691 0.2023916,-0.281989 0.2507341,-0.355927 0.054369,-0.08316 0.1020866,-0.160028 0.1365109,-0.21615 0.0682,-0.111184 0.1512335,-0.250842 0.2194552,-0.365381 z M -3.131031,5.7218221 c -0.083938,0.1409257 -0.1266201,0.2124167 -0.1522319,0.2541709 -0.00784,0.012787 -0.00613,0.00915 0.017616,-0.027175 0.015135,-0.023148 0.074233,-0.1133049 0.1642493,-0.231444 0.074909,-0.098312 0.2718819,-0.350636 0.5775491,-0.6290562 0.1599457,-0.1456882 0.381415,-0.3279581 0.6656987,-0.509142 0.2860974,-0.182339 0.6402957,-0.3664152 1.06192314,-0.5100137 C -0.37276689,3.9249401 0.06236255,3.8408224 0.49622461,3.814186 0.91688612,3.7883599 1.2793731,3.8200238 1.5600968,3.8637898 2.1081943,3.9492404 2.3102755,4.0421967 2.3011989,4.0392651 2.2923447,4.0364053 2.150917,3.9873217 1.9189302,3.9307723 1.6916971,3.8753816 1.3715746,3.8131352 0.98227138,3.7910873 0.59452607,3.7691276 0.15877872,3.7883665 -0.30676795,3.8799784 -0.7648561,3.9701225 -1.2035651,4.1209288 -1.61317,4.3244599 c -0.7946066,0.3948387 -1.3552209,0.9241343 -1.7296677,1.3739042 -0.3573837,0.4292743 -0.603032,0.8548621 -0.771974,1.1958832 -0.1638576,0.3307582 -0.2933844,0.6592182 -0.3955008,0.9547198 -0.1027594,0.2973621 -0.1953377,0.6125064 -0.2756742,0.9388303 -0.1531044,0.6219037 -0.2818037,1.3663636 -0.3288835,2.1822706 -0.045161,0.782662 -0.014695,1.625115 0.1149871,2.47256 0.1229573,0.803501 0.3544896,1.737343 0.7842113,2.663509 0.2169058,0.46749 0.5669709,1.113942 1.1480608,1.76405 0.5873365,0.657094 1.2752822,1.167764 2.0266909,1.554668 0.70953693,0.365342 1.43785858,0.60115 2.1284931,0.765902 0.6849356,0.163393 1.4211206,0.277407 2.2004499,0.361288 0.7709783,0.08298 1.638731,0.142061 2.5639516,0.186381 0.9223172,0.04418 1.9392604,0.0754 3.028243,0.09862 2.1509595,0.04587 4.6258965,0.06145 7.3012745,0.08072 2.629946,0.01894 5.486093,0.04169 8.171604,0.06753 2.651573,0.02551 5.145719,0.05414 7.079369,0.08498 1.293004,0.02062 3.044117,0.06111 4.33712,0.08173 0.515003,0.009 0.973326,0.01469 1.37364,0.01333 0.393926,-0.0013 0.790917,-0.0095 1.174291,-0.03555 0.355181,-0.02414 0.863785,-0.07337 1.411658,-0.208071 0.286099,-0.07034 0.641482,-0.177862 1.027156,-0.34954 0.389166,-0.173233 0.842718,-0.426691 1.293996,-0.801123 0.462027,-0.383354 0.878096,-0.857888 1.208509,-1.421393 0.326843,-0.557417 0.518625,-1.11415 0.625344,-1.615954 0.103988,-0.488968 0.126369,-0.920815 0.122563,-1.252247 -0.0038,-0.33047 -0.03453,-0.615072 -0.06432,-0.826226 -0.05758,-0.408076 -0.14571,-0.773289 -0.209778,-1.020201 -0.06703,-0.258337 -0.142784,-0.518142 -0.20237,-0.721269 -0.133097,-0.45373 -0.22852,-0.774425 -0.306253,-1.105421 -0.07131,-0.303665 -0.161459,-0.80981 -0.309219,-1.463654 C 42.842651,10.025423 42.748146,9.6424008 42.621607,9.2386093 42.495414,8.8359178 42.320384,8.3570608 42.069591,7.8571587 41.811966,7.3436394 41.494991,6.8486269 41.111375,6.3852631 40.726357,5.9202067 40.295148,5.5123507 39.828048,5.1605675 38.891329,4.4551051 37.895756,4.038229 36.99034,3.7813398 36.12385,3.5354947 35.256737,3.4155203 34.620295,3.3403155 34.04547,3.2723918 33.414578,3.2179386 32.839758,3.1500155 32.342476,3.0916429 32.012631,3.0356167 31.725832,2.9619495 31.453281,2.8919422 31.173464,2.7935749 30.842921,2.6272353 30.443139,2.4260526 29.927348,2.1090011 29.176235,1.6218686 28.477745,1.1688651 27.580543,0.57188651 26.668643,0.02718843 25.710598,-0.54507263 24.73977,-1.0602023 23.80757,-1.5027132 22.85427,-1.95524 21.90866,-2.3474297 21.018657,-2.6545263 c -0.929871,-0.3208531 -1.840533,-0.5631785 -2.778333,-0.7102772 -0.978795,-0.1535289 -1.90124,-0.1896457 -2.806951,-0.1458807 -0.945805,0.045702 -1.873319,0.1787685 -2.856206,0.3963827 -1.008752,0.2233407 -2.074924,0.5360443 -3.2290144,0.9202111 C 8.1174005,-1.7844048 6.7142383,-1.2692165 5.3728997,-0.70919276 4.6667834,-0.41438135 3.9671019,-0.10276536 3.3039874,0.21991659 2.6198263,0.55284017 1.9430187,0.91279333 1.3193402,1.2964248 -0.04326127,2.134576 -1.0174049,3.0024528 -1.7285814,3.7937574 -2.1126369,4.2210843 -2.4105176,4.615698 -2.6405722,4.949764 -2.8797652,5.2970999 -3.0571771,5.5978273 -3.131031,5.7218221 Z"
       id="path4714"
       inkscape:original-d="M 0.83843314,8.8128892 C 1.4777926,7.7401649 2.1168874,6.6671763 2.7557177,5.5939229 5.7532756,4.4304121 8.7504491,3.2666831 11.747418,2.1026662 c 1.352016,-0.2836799 2.703714,-0.567613 4.055175,-0.8518164 1.094938,0.1658988 2.189568,0.3315265 3.283956,0.4968929 1.701849,0.7993809 3.403366,1.5984652 5.104651,2.397301 1.536102,1.1348442 3.071879,2.2693786 4.60742,3.4036708 1.135925,0.2102406 2.271541,0.4202084 3.406915,0.6299155 1.239772,0.069133 2.479231,0.1379982 3.718449,0.2066005 0.646658,0.4662741 1.293027,0.9322651 1.939145,1.3980009 0.135046,1.0907406 0.269819,2.1811736 0.404333,3.2713636 0.328155,0.880238 0.656035,1.760177 0.983655,2.639868 -0.17571,0.196325 -0.351676,0.392378 -0.527913,0.588171 -1.664332,-0.07072 -3.32886,-0.141705 -4.993685,-0.212954 C 27.629789,16.0171 21.530038,15.964265 15.429901,15.91116 10.904832,15.88776 6.3796798,15.8641 1.8541721,15.84017 1.2648144,15.313326 0.67521571,14.786237 0.08534065,14.258874 -0.04945499,13.223814 -0.18450982,12.18853 -0.31983193,11.152962 -0.07698954,10.32683 0.16557856,9.5004664 0.40788693,8.6738218 c 0.14378286,0.04662 0.2872954,0.092973 0.43054621,0.1390624 z"
       inkscape:path-effect="#path-effect4716;#path-effect4718" />
    <path
       style="fill:#f0521d;fill-opacity:1;stroke:none;stroke-width:0.264583px;stroke-linecap:butt;stroke-linejoin:miter;stroke-opacity:1"
       d="M 1.2600258,9.2393278 C 1.7771582,7.9274209 2.6792192,6.8531779 3.8281603,5.9590952 4.9771014,5.0650124 6.3727446,4.3511948 7.9618115,3.7439869 9.5508784,3.1367791 11.333196,2.6362123 12.749689,2.3157111 c 1.416493,-0.3205013 2.467033,-0.4609403 3.7298,-0.4611394 1.262767,-1.992e-4 2.737619,0.1397813 4.184863,0.5985481 1.447244,0.4587668 2.866767,1.2361409 4.333224,2.067747 1.466456,0.8316061 2.979759,1.7173828 4.290875,2.3008827 1.311115,0.5834999 2.419971,0.864798 3.56676,1.0054106 1.146789,0.1406125 2.33149,0.1406125 3.247761,0.2852699 0.916272,0.1446573 1.564014,0.4338194 1.986884,1.0494286 0.422869,0.6156093 0.621101,1.5574584 0.732022,2.5672924 0.110921,1.009833 0.134584,2.087627 0.398966,2.778308 0.264382,0.690682 0.769155,0.994301 0.599314,1.191045 -0.16984,0.196744 -1.014192,0.286813 -7.351017,0.295218 -6.336824,0.0084 -18.165657,-0.06488 -24.3514008,-0.228127 C 1.9319967,15.60235 1.3895475,15.349013 1.0568196,14.981448 0.72409168,14.613884 0.60134005,14.131954 0.60601625,13.116256 0.61069244,12.100558 0.74289342,10.551235 1.2600258,9.2393278 Z"
       id="path7221"
       inkscape:original-d="M 0.87511762,9.0016396 C 1.7774436,7.9276606 2.6795046,6.8534176 3.5813006,5.7789106 c 1.395963,-0.713581 2.791606,-1.427399 4.187012,-2.141495 1.782654,-0.5003224 3.5649714,-1.0008895 5.3470614,-1.501731 1.050847,-0.14018 2.101387,-0.280619 3.151683,-0.4213254 1.475176,0.1402506 2.950028,0.2802311 4.424645,0.4199498 1.419844,0.7776695 2.839367,1.5550436 4.258653,2.3321686 1.513629,0.886077 3.026932,1.771854 4.540002,2.657384 1.109162,0.281574 2.218018,0.562872 3.326633,0.843911 1.18501,2.65e-4 2.369711,2.65e-4 3.554169,0 0.64803,0.289437 1.295773,0.578598 1.943261,0.867501 0.198506,0.942152 0.396737,1.8840014 0.594709,2.8256054 0.02392,1.0781 0.04759,2.155893 0.07099,3.233442 0.505061,0.303896 1.009833,0.607516 1.514354,0.910878 -0.844124,0.09034 -1.688476,0.180408 -2.533111,0.270215 -11.829047,-0.07302 -23.65788,-0.146312 -35.4872134,-0.219865 -0.542206,-0.253083 -1.084655,-0.506421 -1.62737998,-0.760028 -0.1224916,-0.481684 -0.2452433,-0.963614 -0.368262,-1.445818 0.132471,-1.549121 0.2646722,-3.098444 0.396611,-4.6480634 z"
       inkscape:path-effect="#path-effect7223" />
    <path
       style="fill:#474747;fill-opacity:1;stroke:none;stroke-width:0.264583px;stroke-linecap:butt;stroke-linejoin:miter;stroke-opacity:1"
       d="M 4.051156,8.8075102 C 6.8628585,7.1445704 9.6744805,5.4816783 11.272872,4.6505242 12.871263,3.8193701 13.256224,3.8199068 13.447893,4.6334323 13.639561,5.4469578 13.638194,7.0731433 13.27706,7.9832528 12.915925,8.8933623 12.194911,9.0876577 10.597316,9.1057602 8.9997222,9.1238627 6.525604,8.965697 4.051156,8.8075102"
       id="path10065"
       inkscape:path-effect="#path-effect10067"
       inkscape:original-d="m 4.051156,8.8075102 c 2.8118869,-1.6626279 5.6235089,-3.3255201 8.434867,-4.9886771 0.38524,7.937e-4 0.770201,0.00135 1.154905,0.00161 -0.0011,1.6265149 -0.0025,3.2527004 -0.0041,4.8786536 C 12.916009,8.8936754 12.194995,9.0879708 11.47366,9.2820169 8.9997064,9.1241094 6.5255882,8.9659437 4.051156,8.8075102"
       sodipodi:nodetypes="cccccc" />
    <path
       style="fill:#474747;fill-opacity:1;stroke:none;stroke-width:0.264583px;stroke-linecap:butt;stroke-linejoin:miter;stroke-opacity:1"
       d="M 15.268376,8.3154837 C 15.112855,7.8621535 15.07763,6.9271653 15.076827,6.0998136 c -8.02e-4,-0.8273517 0.03284,-1.5470159 0.405117,-1.9445945 0.37228,-0.3975786 1.082926,-0.4727779 1.793419,-0.4758937 0.710492,-0.00312 1.420734,0.065798 2.330577,0.2335942 0.909843,0.1677966 2.019204,0.4344176 3.413219,1.161922 1.394015,0.7275045 3.072605,1.915701 3.897204,2.6503886 0.824599,0.7346875 0.7955,1.015809 -1.170266,1.104732 -1.965766,0.088923 -5.868337,-0.014126 -7.957477,-0.051651 -2.08914,-0.037526 -2.364724,-0.0095 -2.520244,-0.4628271 z"
       id="path10783"
       inkscape:path-effect="#path-effect10785"
       inkscape:original-d="M 15.14807,8.7968673 C 15.11311,7.8621439 15.07788,6.9271559 15.042395,5.9919036 c 0.03391,-0.7194286 0.06755,-1.4390928 0.100922,-2.1590362 0.710938,-0.074937 1.421584,-0.1501368 2.131978,-0.225602 0.710537,0.069181 1.420779,0.1380942 2.130772,0.2067446 1.10967,0.266896 2.219031,0.5335169 3.328149,0.7998788 1.678922,1.1885086 3.357512,2.3767052 5.035871,3.5646611 -0.02884,0.2813973 -0.05794,0.5625187 -0.0873,0.843381 C 23.780324,8.9191427 19.877753,8.8160941 15.97484,8.7127788 c -0.275331,0.028294 -0.550915,0.056323 -0.82677,0.084089 z" />
  </g>
</svg>
