<?xml version="1.0" encoding="UTF-8" standalone="no"?>
<!-- Created with Inkscape (http://www.inkscape.org/) -->

<svg
   width="1cm"
   height="1cm"
   viewBox="0 0 10 10"
   version="1.1"
   id="svg13053"
   inkscape:version="1.1.1 (3bf5ae0d25, 2021-09-20)"
   sodipodi:docname="car_wheel.svg"
   xmlns:inkscape="http://www.inkscape.org/namespaces/inkscape"
   xmlns:sodipodi="http://sodipodi.sourceforge.net/DTD/sodipodi-0.dtd"
   xmlns="http://www.w3.org/2000/svg"
   xmlns:svg="http://www.w3.org/2000/svg">
  <sodipodi:namedview
     id="namedview13055"
     pagecolor="#ffffff"
     bordercolor="#666666"
     borderopacity="1.0"
     inkscape:pageshadow="2"
     inkscape:pageopacity="0.0"
     inkscape:pagecheckerboard="0"
     inkscape:document-units="mm"
     showgrid="false"
     width="5mm"
     units="cm"
     inkscape:zoom="10.542478"
     inkscape:cx="23.855871"
     inkscape:cy="19.824561"
     inkscape:window-width="1366"
     inkscape:window-height="694"
     inkscape:window-x="0"
     inkscape:window-y="0"
     inkscape:window-maximized="1"
     inkscape:current-layer="layer1" />
  <defs
     id="defs13050">
    <inkscape:path-effect
       effect="skeletal"
       id="path-effect185"
       is_visible="true"
       lpeversion="1"
       pattern="M 11.221502,8.0139284 A 0.35825354,0.35825354 0 0 1 10.863249,8.372182 0.35825354,0.35825354 0 0 1 10.504995,8.0139284 0.35825354,0.35825354 0 0 1 10.863249,7.6556749 0.35825354,0.35825354 0 0 1 11.221502,8.0139284 Z"
       copytype="repeated_stretched"
       prop_scale="1"
       scale_y_rel="false"
       spacing="0.7"
       normal_offset="-0.1"
       tang_offset="0"
       prop_units="true"
       vertical_pattern="false"
       hide_knot="true"
       fuse_tolerance="0" />
    <inkscape:path-effect
       effect="skeletal"
       id="path-effect24"
       is_visible="true"
       lpeversion="1"
       pattern="#path97"
       copytype="repeated"
       prop_scale="1"
       scale_y_rel="false"
       spacing="0"
       normal_offset="0"
       tang_offset="0"
       prop_units="false"
       vertical_pattern="false"
       hide_knot="false"
       fuse_tolerance="0" />
  </defs>
  <g
     inkscape:label="Layer 1"
     inkscape:groupmode="layer"
     id="layer1">
    <circle
       style="fill:#161616;fill-opacity:1;fill-rule:nonzero;stroke-width:0.275109"
       id="circle12365"
       cx="5"
       cy="5"
       r="4.75" />
    <circle
       style="fill:#666666;stroke-width:0.775215"
       id="path13224"
       cx="5"
       cy="5"
       r="3.471" />
    <path
       id="circle8"
       style="fill:#1a1a1a;stroke:none;stroke-width:0.413105"
       d="M 6.7474216,5.7575796 C 6.5719144,5.6754432 6.4951919,5.4625904 6.5304298,5.309388 6.564975,5.159197 6.7261273,5 6.921313,5 7.1174618,5 7.2838884,5.1982364 7.2200155,5.4697888 7.1567538,5.7387424 6.9220471,5.8393034 6.7474216,5.7575796 Z M 5.8449539,6.7039521 C 5.7545853,6.5334401 5.8194166,6.3145818 5.9470303,6.2111629 6.0752286,6.1072704 6.3033544,6.0898114 6.4514841,6.2162264 6.5993883,6.342449 6.605292,6.5981651 6.3949438,6.7667873 6.1840957,6.9358101 5.9354631,6.8747296 5.8449539,6.7039521 Z M 4.5535737,6.8610009 C 4.6031682,6.675408 4.798673,6.5604347 4.953271,6.5631525 c 0.015631,2.748e-4 0.031215,0.00159 0.046729,0.00396 0,0 0,0 0,0 0.1406284,0.027449 0.298969,0.1523684 0.3322645,0.3204926 0.033514,0.1692294 -0.08467,0.3547684 -0.3322644,0.3879072 -1e-7,0 -1e-7,0 -1e-7,0 -0.023894,0.0022 -0.048018,0.00266 -0.07207,0.00139 C 4.6445697,7.2618861 4.5041628,7.0459067 4.5535737,6.8610009 Z M 3.4748339,6.124723 C 3.629515,6.007045 3.8563922,6.0368169 3.9788808,6.147687 4.1011017,6.2583148 4.1535164,6.4807805 4.0530837,6.6461555 3.9525759,6.8116539 3.7008649,6.8583428 3.5003086,6.6777711 3.2999808,6.4974052 3.320267,6.2423141 3.4748339,6.124723 Z M 3.0833018,4.8814838 C 3.1780542,4.8881821 3.2673327,4.9364844 3.3345357,5 c 0.06437,0.062361 0.1047903,0.1377749 0.117235,0.2172974 0.024127,0.1541702 -0.065839,0.3616829 -0.245481,0.432781 C 3.0275138,5.7208336 2.7987825,5.6062277 2.7520007,5.3316836 2.731036,5.20865 2.7581222,5.0862495 2.8228383,5 2.8923374,4.9113599 2.9879757,4.8747449 3.0833018,4.8814838 Z M 3.6272541,3.6965123 C 3.7684168,3.8312779 3.7735398,4.0596461 3.6838385,4.1968792 3.5949309,4.3328981 3.3850047,4.4206431 3.2062933,4.3499123 3.0270509,4.2789713 2.9396905,4.0382587 3.0860857,3.8098609 3.2318149,3.5825023 3.486495,3.5621319 3.6272541,3.6965123 Z M 4.7836976,3.0932876 C 4.8083242,3.2844832 4.6721752,3.4651687 4.524702,3.518746 4.3746901,3.5732456 4.1541254,3.5202048 4.0530923,3.3538393 3.952546,3.1882755 4.0273183,2.9444631 4.2846391,2.8525219 4.5441339,2.759804 4.758949,2.9011449 4.7836976,3.0932876 Z m 1.261753,0.3242238 C 5.9348576,3.5780714 5.7111814,3.61845 5.5637017,3.5540803 5.4184384,3.4906778 5.2949418,3.3008998 5.3322744,3.1123962 5.3697802,2.9230173 5.5925341,2.7955841 5.8446642,2.9031606 6.0948983,3.0099281 6.1555498,3.2576683 6.0454506,3.4175114 Z M 6.8333148,4.4600372 C 6.650764,4.5194063 6.4470373,4.4190786 6.3667224,4.2792819 6.2855043,4.1379133 6.3029974,3.9105053 6.4514907,3.7837812 6.5994634,3.6575014 6.8524179,3.6921391 6.9848986,3.9280442 7.1181347,4.1652944 7.0165339,4.4004507 6.8333148,4.4600372 Z" />
  </g>
</svg>
