<?xml version="1.0" encoding="UTF-8" standalone="no"?>
<!-- Created with Inkscape (http://www.inkscape.org/) -->

<svg
   width="80cm"
   height="20cm"
   viewBox="0 0 800 199.99999"
   version="1.1"
   id="svg5"
   inkscape:version="1.1.1 (3bf5ae0d25, 2021-09-20)"
   sodipodi:docname="hills.svg"
   xmlns:inkscape="http://www.inkscape.org/namespaces/inkscape"
   xmlns:sodipodi="http://sodipodi.sourceforge.net/DTD/sodipodi-0.dtd"
   xmlns="http://www.w3.org/2000/svg"
   xmlns:svg="http://www.w3.org/2000/svg">
  <sodipodi:namedview
     id="namedview7"
     pagecolor="#ffffff"
     bordercolor="#666666"
     borderopacity="1.0"
     inkscape:pageshadow="2"
     inkscape:pageopacity="0.0"
     inkscape:pagecheckerboard="0"
     inkscape:document-units="mm"
     showgrid="false"
     units="cm"
     inkscape:zoom="0.93183221"
     inkscape:cx="83.16948"
     inkscape:cy="518.33366"
     inkscape:window-width="1366"
     inkscape:window-height="694"
     inkscape:window-x="0"
     inkscape:window-y="0"
     inkscape:window-maximized="1"
     inkscape:current-layer="layer1"
     width="80cm" />
  <defs
     id="defs2">
    <inkscape:path-effect
       effect="bspline"
       id="path-effect2433"
       is_visible="true"
       lpeversion="1"
       weight="33.333333"
       steps="2"
       helper_size="0"
       apply_no_weight="true"
       apply_with_weight="true"
       only_selected="false" />
    <inkscape:path-effect
       effect="bspline"
       id="path-effect63"
       is_visible="true"
       lpeversion="1"
       weight="33.333333"
       steps="2"
       helper_size="0"
       apply_no_weight="true"
       apply_with_weight="true"
       only_selected="false" />
  </defs>
  <g
     inkscape:label="Layer 1"
     inkscape:groupmode="layer"
     id="layer1">
    <path
       style="fill:#63b263;fill-opacity:1;stroke:none;stroke-width:0.264583px;stroke-linecap:butt;stroke-linejoin:miter;stroke-opacity:1"
       d="m 0,100 c 12.072795,1.96901 24.145889,3.93807 34.706912,3.09145 10.561022,-0.84663 19.610074,-4.508632 29.343898,-7.8517 9.733825,-3.343068 20.151791,-6.36701 29.409215,-7.125832 9.257425,-0.758823 17.353635,0.747364 26.100825,7.085323 8.7472,6.337959 18.14489,17.506989 31.81127,22.069379 13.66638,4.56239 31.60054,2.51831 47.41869,-3.61344 15.81815,-6.13174 29.51956,-16.35069 44.40678,-20.883379 14.88722,-4.532689 30.9591,-3.379013 46.42205,0.393354 15.46296,3.772367 30.31608,10.163035 48.61149,11.738505 18.2954,1.57548 40.03203,-1.66408 61.83225,-2.6728 21.80022,-1.00873 43.66267,0.21333 58.52418,3.74523 14.8615,3.53191 22.72128,9.37317 37.66032,8.64777 14.93905,-0.72541 36.95646,-8.01706 54.14133,-16.604166 17.18488,-8.587104 29.53642,-18.469148 41.85718,-22.035936 12.32077,-3.566788 24.60979,-0.818317 34.11974,6.361559 9.50995,7.179876 16.24047,18.790403 23.20894,31.759523 6.96848,12.96913 14.17451,27.29603 23.04021,36.44466 8.86571,9.14863 19.39036,13.11874 32.61265,14.02536 13.22229,0.90663 29.14145,-1.25008 41.15601,-12.60585 12.01457,-11.35578 20.12418,-31.90992 28.31159,-42.18726 8.18741,-10.277349 16.45183,-10.277349 20.88882,-10.194705 4.437,0.08264 5.046,0.247755 5.65533,0.412955 0,0 -1.23968,100 -1.23968,100 0,0 -800,0 -800,0 0,0 0,-100 0,-100 z"
       id="path2431"
       inkscape:path-effect="#path-effect2433"
       inkscape:original-d="m 0,100 c 0,0 24.145855,3.93828 36.218386,5.90703 9.049676,-3.66189 18.098728,-7.323895 27.147697,-10.986236 10.418643,-3.023799 20.836609,-6.04774 31.254514,-9.072004 8.096813,1.506511 16.193023,3.012699 24.289143,4.518654 9.39833,11.169736 18.79603,22.338766 28.19365,33.507756 17.93514,-2.0439 35.8693,-4.08798 53.80356,-6.13237 13.70223,-10.2191 27.40364,-20.438043 41.10506,-30.65746 16.07278,1.153985 32.14466,2.307661 48.21656,3.461094 14.85397,6.391188 29.7071,12.781856 44.56025,19.172386 21.73775,-3.23942 43.47438,-6.47897 65.21117,-9.71885 21.8636,1.22237 43.72605,2.44444 65.58867,3.66626 7.86038,5.84177 15.72014,11.68305 23.57983,17.52418 22.01854,-7.29168 44.03595,-14.58333 66.05354,-21.875388 12.35229,-9.882174 24.70383,-19.764216 37.05535,-29.646721 12.28973,2.748841 24.57876,5.497306 36.86773,8.245559 6.73105,11.611256 13.46157,23.22178 20.19196,34.83228 7.20659,14.32774 14.4126,28.65465 21.61853,42.98158 10.52533,3.97053 21.04998,7.94064 31.5746,11.91056 15.92006,-2.15653 31.83922,-4.31323 47.75843,-6.47025 8.1102,-20.5547 16.21981,-41.10884 24.32931,-61.663659 8.265,2.64e-4 16.52942,2.64e-4 24.79376,0 C 800.0213,99.669868 801.23968,100 801.23968,100 L 800,200 H 0 Z"
       sodipodi:nodetypes="cccccccccccccccccccccccccc" />
  </g>
</svg>
